# xmcd
#
# Track frame offsets: 
#        150
#        14437
#        34283
#        53163
#        69487
#        90232
#        108556
#        127731
#        156104
#        176788
#        191098
#        217535
#        236789
#        257420
#        272813
#        290426
#        310197
#
# Disc length: 4355 seconds
#
# Revision: 0
# Processed by: cddbd v1.5.2PL0 Copyright (c) Steve Scherf et al.
# Submitted via: ExactAudioCopyFreeDBPlugin 1.0
#
DISCID=e8110111
DTITLE=Various Artist - Most Wanted Vol.2
DYEAR=2006
DGENRE=Hip-Hop
TTITLE0=Rakim - Guess Who's Back
TTITLE1=Montell Jordan - This Is How We Do It [Puff Daddy Mix]
TTITLE2=Positive K - I Got A Man [Hip Hop Mix]
TTITLE3=Onyx - Slam
TTITLE4=Beastie Boys - The New Style
TTITLE5=X-Clan - Funkin' Lesson
TTITLE6=Emage - The Choice Is Yours [Different Drum Mix]
TTITLE7=Eric B. and Rakim - Eric B. Is President
TTITLE8=Goodfellaz - Why You Wanna Flip On Me
TTITLE9=Method Man - Bring The Pain [Remix]
TTITLE10=Kurtis Blow - AJ Scratch
TTITLE11=Diamond D and The Psychotic Neurotics - Check One, Two
TTITLE12=Group Home - Suspended In Time
TTITLE13=Redman - Time 4 Sum Aksion
TTITLE14=Slick Rick - Treat Her Like A Prostitute
TTITLE15=Ultramagnetic MC's - Poppa Large
TTITLE16=LL Cool J - The Boomin' System
EXTD=
EXTT0=
EXTT1=
EXTT2=
EXTT3=
EXTT4=
EXTT5=
EXTT6=
EXTT7=
EXTT8=
EXTT9=
EXTT10=
EXTT11=
EXTT12=
EXTT13=
EXTT14=
EXTT15=
EXTT16=
PLAYORDER=
